<svg xmlns="http://www.w3.org/2000/svg" width="480" height="500" viewBox="0 0 480 500" role="img" aria-labelledby="title desc">
<title id="title">Laya SDK: 입력에서 출력까지</title>
<desc id="desc">상태와 질문 입력, Router의 모델 선택, HF 또는 로컬 체크포인트 로드, 질문별 입력 행, DecisionModel, 확률 보정과 보류의 순서입니다.</desc>
<defs><marker id="arrow" markerWidth="7" markerHeight="7" refX="6" refY="3.5" orient="auto"><path d="M0 0 L7 3.5 L0 7" fill="#536478"/></marker></defs>
<rect width="480" height="500" fill="#f7f9fc"/>
<text x="24" y="35" font-family="sans-serif" font-size="23" font-weight="bold" fill="#162c46">Laya SDK: 입력에서 출력까지</text>
<rect x="18" y="58" width="210" height="108" rx="12" fill="#ffffff" stroke="#99abc0" stroke-width="2"/>
<text x="123" y="105.5" text-anchor="middle" font-family="sans-serif" font-size="20" fill="#162c46">① 상태 + 질문</text>
<text x="123" y="132.5" text-anchor="middle" font-family="sans-serif" font-size="20" fill="#162c46">SDK · 외부 API</text>
<rect x="252" y="58" width="210" height="108" rx="12" fill="#ffffff" stroke="#99abc0" stroke-width="2"/>
<text x="357" y="92" text-anchor="middle" font-family="sans-serif" font-size="20" fill="#162c46">② Router.route</text>
<text x="357" y="119" text-anchor="middle" font-family="sans-serif" font-size="20" fill="#162c46">model · task</text>
<text x="357" y="146" text-anchor="middle" font-family="sans-serif" font-size="20" fill="#162c46">언어 감지</text>
<rect x="252" y="204" width="210" height="108" rx="12" fill="#ffffff" stroke="#99abc0" stroke-width="2"/>
<text x="357" y="238" text-anchor="middle" font-family="sans-serif" font-size="20" fill="#162c46">③ Agent 로드</text>
<text x="357" y="265" text-anchor="middle" font-family="sans-serif" font-size="20" fill="#162c46">HF 또는 로컬</text>
<text x="357" y="292" text-anchor="middle" font-family="sans-serif" font-size="20" fill="#162c46">체크포인트</text>
<rect x="18" y="204" width="210" height="108" rx="12" fill="#ffffff" stroke="#99abc0" stroke-width="2"/>
<text x="123" y="251.5" text-anchor="middle" font-family="sans-serif" font-size="20" fill="#162c46">④ 질문별 입력 행</text>
<text x="123" y="278.5" text-anchor="middle" font-family="sans-serif" font-size="20" fill="#162c46">토큰 예산 · 배치</text>
<rect x="18" y="350" width="210" height="108" rx="12" fill="#ffffff" stroke="#99abc0" stroke-width="2"/>
<text x="123" y="397.5" text-anchor="middle" font-family="sans-serif" font-size="20" fill="#162c46">⑤ DecisionModel</text>
<text x="123" y="424.5" text-anchor="middle" font-family="sans-serif" font-size="20" fill="#162c46">인코더 → logits</text>
<rect x="252" y="350" width="210" height="108" rx="12" fill="#ffffff" stroke="#99abc0" stroke-width="2"/>
<text x="357" y="384" text-anchor="middle" font-family="sans-serif" font-size="20" fill="#162c46">⑥ 확률 · 타입 변환</text>
<text x="357" y="411" text-anchor="middle" font-family="sans-serif" font-size="20" fill="#162c46">온도 보정 · 보류</text>
<text x="357" y="438" text-anchor="middle" font-family="sans-serif" font-size="20" fill="#162c46">answers / usage</text>
<path d="M230 112 L248 112" fill="none" stroke="#536478" stroke-width="2.5" marker-end="url(#arrow)"/>
<path d="M357 168 L357 199" fill="none" stroke="#536478" stroke-width="2.5" marker-end="url(#arrow)"/>
<path d="M250 258 L232 258" fill="none" stroke="#536478" stroke-width="2.5" marker-end="url(#arrow)"/>
<path d="M123 314 L123 345" fill="none" stroke="#536478" stroke-width="2.5" marker-end="url(#arrow)"/>
<path d="M230 404 L248 404" fill="none" stroke="#536478" stroke-width="2.5" marker-end="url(#arrow)"/>
<text x="240" y="485" text-anchor="middle" font-family="sans-serif" font-size="18" fill="#526378">모델 로드는 필요 시 · 선택 이유는 routing</text>
</svg>
